<?xml version="1.0" encoding="UTF-8" standalone="no"?>
<svg
   height="1024"
   width="1024"
   version="1.1"
   id="svg18"
   sodipodi:docname="agones-sdk-icon.svg"
   inkscape:version="1.1 (ce6663b3b7, 2021-05-25)"
   xmlns:inkscape="http://www.inkscape.org/namespaces/inkscape"
   xmlns:sodipodi="http://sodipodi.sourceforge.net/DTD/sodipodi-0.dtd"
   xmlns="http://www.w3.org/2000/svg"
   xmlns:svg="http://www.w3.org/2000/svg">
  <defs
     id="defs22">
    <clipPath
       clipPathUnits="userSpaceOnUse"
       id="clipPath1663">
      <path
         id="path1665"
         style="fill:#2d70de;fill-opacity:1;fill-rule:nonzero;stroke:none;stroke-width:5.4625"
         d="m 1531.5415,318.88361 c 0.475,14.31209 -8.9256,27.05586 -22.7401,30.84155 -41.5643,11.37822 -79.8344,30.02705 -115.1985,55.61335 -27.8697,20.16215 -55.8486,40.26394 -84.7781,58.82571 -20.3094,13.02799 -42.121,23.25366 -67.9421,19.67027 -34.1681,-4.74153 -58.061,-26.37291 -67.2598,-63.22804 -3.3809,-13.53642 -6.3857,-27.29634 -7.959,-41.13276 -2.5666,-22.5872 -3.818,-45.32213 -5.6317,-67.99715 1.7488,-99.76665 27.5419,-191.85899 84.5046,-274.342361 36.5714,-52.9478 87.7659,-81.358274 151.3548,-87.86416 22.4126,-2.287858 44.4318,-1.993869 66.14,0.339226 18.0969,1.929797 29.5684,18.982033 27.498,37.062872 -0.2263,1.839322 -0.3393,3.7238817 -0.3393,5.6427254 0,1.0930575 0.038,2.163482 0.1128,3.2376756 -0.151,6.3585032 -0.2639,9.9583917 -2.661,17.769497 -1.945,6.391296 -7.4837,17.021339 -22.0957,19.140712 h -56.0835 c -17.8294,0 -32.2832,17.977183 -32.2832,40.149387 0,22.172224 14.4538,40.149036 32.2832,40.149036 h 146.5641 c 14.623,2.11447 20.173,12.74979 22.1176,19.14636 2.5025,8.22646 2.4952,11.77697 2.6835,18.81805 -0.034,0.71992 -0.038,1.45113 -0.038,2.1861 0,22.1722 14.4538,40.14374 32.289,40.14374 h 20.2109 c 17.8295,0 32.2886,17.98283 32.2886,40.1494 0,22.17786 -14.4591,40.15465 -32.2886,40.15465 h -68.647 c -17.8297,0 -32.2886,17.9772 -32.2886,40.1494 z" />
    </clipPath>
  </defs>
  <sodipodi:namedview
     id="namedview20"
     pagecolor="#ffffff"
     bordercolor="#666666"
     borderopacity="1.0"
     inkscape:pageshadow="2"
     inkscape:pageopacity="0.0"
     inkscape:pagecheckerboard="0"
     showgrid="false"
     inkscape:snap-to-guides="true"
     inkscape:snap-grids="true"
     inkscape:snap-page="true"
     inkscape:snap-others="false"
     inkscape:object-nodes="false"
     inkscape:snap-nodes="false"
     inkscape:snap-global="false"
     inkscape:zoom="0.56002305"
     inkscape:cx="306.2374"
     inkscape:cy="561.58403"
     inkscape:window-width="1920"
     inkscape:window-height="960"
     inkscape:window-x="0"
     inkscape:window-y="27"
     inkscape:window-maximized="1"
     inkscape:current-layer="layer1"
     inkscape:snap-bbox="true"
     inkscape:snap-bbox-midpoints="false" />
  <g
     inkscape:groupmode="layer"
     id="layer1"
     inkscape:label="Layer 1"
     style="display:inline">
    <ellipse
       style="fill:#ffffff;fill-rule:evenodd;stroke-width:1.02366;fill-opacity:1"
       id="path1820"
       cx="512.97424"
       cy="510.60391"
       rx="511.58145"
       ry="509.05371" />
    <path
       id="path50"
       style="fill:#17252e;fill-opacity:1;fill-rule:nonzero;stroke:none;stroke-width:5.71039"
       d="m 899.28195,353.48057 c -47.6587,-79.79137 -118.0048,-116.36038 -209.7304,-114.46475 -10.6329,0.2364 -21.1744,0.9141 -31.6301,2.03311 -9.3476,1.00081 -14.7956,11.53481 -9.9304,19.5751 4.2029,6.96108 6.6984,15.60068 6.6984,24.9944 0,23.17839 -15.1097,41.97096 -33.7596,41.97096 h -101.2623 c -18.6385,0 -33.7538,18.79297 -33.7538,41.97134 0,23.17837 15.1153,41.97137 33.7538,41.97137 h 77.821 c 17.9422,0 32.6064,17.40526 33.6856,39.37283 l 0.078,-0.0787 c 0.4689,11.07815 -0.1979,14.33312 2.9709,24.67447 2.0212,6.65255 7.7602,17.67357 22.847,19.97503 h 83.8855 c 18.6445,0 33.7538,18.79848 33.7538,41.97136 0,23.18389 -15.1093,41.97686 -33.7538,41.97686 h -133.3314 c -16.2063,1.77701 -22.2539,13.30513 -24.3435,20.16888 -2.4783,8.14313 -2.6046,11.90637 -2.77,18.53609 0.078,1.07958 0.1178,2.16315 0.1178,3.26639 0,1.94643 -0.1178,3.86528 -0.3153,5.74434 -1.6036,14.47576 9.0455,27.24424 23.1672,30.81324 47.082,11.90046 90.9833,33.34279 131.9784,64.00745 29.785,22.2765 60.9751,42.81102 92.6165,62.36878 12.2886,7.60056 27.3067,13.4253 41.5658,14.72166 45.8714,4.17423 77.9864,-20.16341 89.5728,-65.30975 8.23425,-32.06382 11.95185,-64.77264 12.81425,-97.84161 C 974.66,534.83713 951.37925,440.67875 899.29465,353.48737" />
  </g>
  <g
     inkscape:groupmode="layer"
     id="layer2"
     inkscape:label="Layer 2"
     style="display:inline">
    <g
       id="g1657"
       transform="matrix(1.0453796,0,0,1.0453796,-1143.1653,293.11225)"
       clip-path="url(#clipPath1663)">
      <path
         d="m 1688.0902,313.44012 c 0,0 -0.9769,-5.99527 -1.5483,-5.94116 l -108.7871,10.49625 c -8.6561,0.83586 -15.3789,7.73916 -15.9864,16.41338 l -2.9887,42.83591 -84.1623,6.00432 -5.7247,-38.82203 c -1.275,-8.63514 -8.8156,-15.14456 -17.544,-15.14456 h -114.8184 c -8.7254,0 -16.266,6.50942 -17.5409,15.14456 l -5.7278,38.82203 -84.1625,-6.00432 -2.9885,-42.83591 c -0.6072,-8.67721 -7.3301,-15.58052 -15.9862,-16.41638 L 1101.283,307.49896 c -0.5623,-0.0541 -0.9742,5.94718 -1.5363,5.94718 l -0.1472,23.54217 92.1783,14.86493 3.0185,43.21777 c 0.6105,8.74939 7.6702,15.82406 16.4255,16.45245 l 115.9099,8.26831 c 0.4388,0.0301 0.872,0.048 1.3048,0.048 8.7104,0 16.2392,-6.51242 17.5138,-15.14756 l 5.8901,-39.94651 h 84.2017 l 5.8901,39.94651 c 1.2716,8.63214 8.8094,15.14456 17.5318,15.14456 0.4268,0 0.8538,-0.0153 1.2718,-0.0451 l 115.9248,-8.26833 c 8.7524,-0.62838 15.815,-7.70306 16.4254,-16.45244 l 3.0156,-43.21777 92.1393,-14.93108 z"
         fill="#ffffff"
         id="path2"
         style="stroke-width:3.00667" />
      <path
         d="m 1099.7452,135.92365 v 142.85856 18.14521 16.51259 c 0.3249,0.004 0.6494,0.0153 0.9713,0.0451 l 108.829,10.49325 c 5.7006,0.55023 10.1687,5.13838 10.5656,10.85104 l 3.3554,48.04044 94.9322,6.77403 6.5396,-44.33925 c 0.8478,-5.74875 5.7789,-10.00919 11.5936,-10.00919 h 114.8185 c 5.8118,0 10.7427,4.26044 11.5905,10.00919 l 6.5396,44.33925 94.9355,-6.77403 3.3523,-48.04044 c 0.3998,-5.71266 4.8649,-10.29781 10.5653,-10.85104 l 108.787,-10.49325 c 0.3219,-0.0301 0.6437,-0.0421 0.9683,-0.0451 v -14.1644 l 0.046,-0.0153 V 135.92339 c 15.3247,-19.29216 29.8357,-40.572526 40.9538,-58.476575 -16.9907,-28.92408 -37.8089,-54.772352 -60.0611,-78.7204275 -20.6378,10.3880154 -40.6833,22.1560985 -59.6163,34.6788425 -9.4739,-9.416876 -20.1446,-17.11992 -30.6258,-25.1717761 -10.2978,-8.2713199 -21.9034,-14.335771 -32.9109,-21.4014199 3.2773,-24.405099 4.8979,-48.431319 5.5503,-73.506882 -28.4009,-14.293692 -58.6869,-23.770682 -89.3219,-30.577762 -12.2311,20.55655 -23.4159,42.817887 -33.1576,64.580108 -11.5514,-1.930293 -23.1572,-2.645871 -34.7779,-2.784188 v -0.0172 c -0.08,0 -0.1568,0.0172 -0.2255,0.0172 -0.073,0 -0.1472,-0.0172 -0.2194,-0.0172 v 0.0172 l -34.7931,2.784188 c -9.7357,-21.762221 -20.9144,-44.023558 -33.1636,-64.580108 -30.6199,6.80708 -60.909,16.28407 -89.3069,30.577762 0.6496,25.075563 2.27,49.101783 5.5564,73.506882 -11.0284,7.0656489 -22.6191,13.1301 -32.92,21.4014199 -10.4663,8.0518561 -21.1549,15.7549001 -30.632,25.1717761 -18.9329,-12.522744 -38.9723,-24.2908271 -59.616,-34.6788425 -22.2522,23.9480755 -43.0584,49.7963475 -60.0552,78.7204275 13.3576,20.96754 27.6855,42.041815 40.9538,58.476575 z"
         fill="#478cbf"
         id="path4"
         sodipodi:nodetypes="cccccccccsssscccccccccccccccccccsccccccccccc"
         style="stroke-width:3.00667" />
      <path
         d="m 1590.4573,346.35614 -3.3703,48.29602 c -0.406,5.8209 -5.0361,10.45417 -10.8572,10.87209 l -115.922,8.27133 c -0.2826,0.021 -0.5651,0.0301 -0.8446,0.0301 -5.7608,0 -10.7309,-4.22737 -11.5816,-10.0122 l -6.648,-45.08188 h -94.5865 l -6.6477,45.08188 c -0.8929,6.06744 -6.3171,10.43013 -12.4265,9.98214 l -115.9218,-8.27134 c -5.821,-0.41791 -10.4512,-5.05119 -10.8571,-10.87209 l -3.3706,-48.29602 -97.8578,-9.43491 c 0.046,10.5173 0.1798,22.03883 0.1798,24.33293 0,103.35099 131.1054,153.02706 293.9943,153.59834 h 0.1985 0.2013 c 162.8892,-0.57128 293.9494,-50.24735 293.9494,-153.59834 0,-2.33619 0.1415,-13.80961 0.1893,-24.33293 z"
         fill="#478cbf"
         id="path6"
         style="stroke-width:3.00667" />
      <path
         d="m 1305.2518,207.98345 c 0,36.23628 -29.3602,65.59033 -65.5845,65.59033 -36.2063,0 -65.5752,-29.35405 -65.5752,-65.59033 0,-36.21224 29.3689,-65.55125 65.5752,-65.55125 36.2243,0 65.5845,29.33901 65.5845,65.55125"
         fill="#ffffff"
         id="path8"
         style="stroke-width:3.00667" />
      <path
         d="m 1289.4708,211.87358 c 0,24.03526 -19.4802,43.51543 -43.5333,43.51543 -24.0413,0 -43.5336,-19.48017 -43.5336,-43.51543 0,-24.03526 19.4923,-43.53345 43.5336,-43.53345 24.0531,0 43.5333,19.49819 43.5333,43.53345"
         fill="#414042"
         id="path10"
         style="stroke-width:3.00667" />
      <path
         d="m 1393.9348,279.54081 c -11.6599,0 -21.1097,-8.59303 -21.1097,-19.1855 v -60.37678 c 0,-10.58347 9.4498,-19.1855 21.1097,-19.1855 11.6599,0 21.1309,8.60203 21.1309,19.1855 v 60.37678 c 0,10.59247 -9.471,19.1855 -21.1309,19.1855"
         fill="#ffffff"
         id="path12"
         style="stroke-width:3.00667" />
      <path
         d="m 1482.629,207.98345 c 0,36.23628 29.36,65.59033 65.5903,65.59033 36.2032,0 65.5693,-29.35405 65.5693,-65.59033 0,-36.21224 -29.3661,-65.55125 -65.5693,-65.55125 -36.2303,0 -65.5903,29.33901 -65.5903,65.55125"
         fill="#ffffff"
         id="path14"
         style="stroke-width:3.00667" />
      <path
         d="m 1498.4137,211.87358 c 0,24.03526 19.4742,43.51543 43.5095,43.51543 24.0593,0 43.5334,-19.48017 43.5334,-43.51543 0,-24.03526 -19.4741,-43.53345 -43.5334,-43.53345 -24.0353,0 -43.5095,19.49819 -43.5095,43.53345"
         fill="#414042"
         id="path16"
         style="stroke-width:3.00667" />
    </g>
  </g>
</svg>
